<svg width="44" height="37" viewBox="0 0 44 37" fill="none" xmlns="http://www.w3.org/2000/svg">
<path d="M38.2812 0.992188H5.4688C4.01882 0.993768 2.62873 1.58197 1.60347 2.62769C0.57822 3.67349 0.00155 5.09139 0 6.57029V30.4766C0.00155 31.9555 0.57822 33.3734 1.60347 34.4192C2.62873 35.4649 4.01882 36.0531 5.4688 36.0547H38.2812C39.7312 36.0531 41.1213 35.4649 42.1465 34.4192C43.1718 33.3734 43.7484 31.9555 43.75 30.4766V6.57029C43.7484 5.09139 43.1718 3.67349 42.1465 2.62769C41.1213 1.58197 39.7312 0.993768 38.2812 0.992188ZM36.8965 10.219L22.834 21.3753C22.5598 21.5927 22.2223 21.7107 21.875 21.7107C21.5277 21.7107 21.1902 21.5927 20.916 21.3753L6.8535 10.219C6.6883 10.0918 6.5495 9.93229 6.4452 9.74979C6.341 9.56739 6.2733 9.36559 6.2461 9.15619C6.219 8.94689 6.2329 8.73409 6.287 8.53029C6.3412 8.32649 6.4345 8.13559 6.5616 7.96889C6.6887 7.80219 6.847 7.66289 7.0273 7.55909C7.2076 7.45539 7.4064 7.38919 7.612 7.36439C7.8176 7.33969 8.026 7.35679 8.225 7.41489C8.4241 7.47299 8.6098 7.57089 8.7715 7.70289L21.875 18.0981L34.9785 7.70289C35.3062 7.45049 35.7181 7.33979 36.1251 7.39469C36.5321 7.44969 36.9016 7.66579 37.1537 7.99649C37.4057 8.32709 37.52 8.74559 37.4719 9.16149C37.4237 9.57739 37.217 9.95729 36.8965 10.219Z" fill="#F3CDAF"/>
</svg>
