<svg width="24" height="25" viewBox="0 0 24 25" fill="none" xmlns="http://www.w3.org/2000/svg">
<path d="M6.61808 0.795898C3.039 0.795898 0.136597 3.69831 0.136597 7.27738V17.6478C0.136597 21.2268 3.039 24.1292 6.61808 24.1292H16.9884C20.5675 24.1292 23.4699 21.2268 23.4699 17.6478V7.27738C23.4699 3.69831 20.5675 0.795898 16.9884 0.795898H6.61808ZM19.581 3.38849C20.2966 3.38849 20.8773 3.96923 20.8773 4.68479C20.8773 5.40034 20.2966 5.98108 19.581 5.98108C18.8655 5.98108 18.2847 5.40034 18.2847 4.68479C18.2847 3.96923 18.8655 3.38849 19.581 3.38849ZM11.8033 5.98108C15.3823 5.98108 18.2847 8.88349 18.2847 12.4626C18.2847 16.0416 15.3823 18.944 11.8033 18.944C8.22419 18.944 5.32178 16.0416 5.32178 12.4626C5.32178 8.88349 8.22419 5.98108 11.8033 5.98108ZM11.8033 8.57368C10.7719 8.57368 9.7827 8.98341 9.0534 9.71271C8.32411 10.442 7.91437 11.4312 7.91437 12.4626C7.91437 13.4939 8.32411 14.4831 9.0534 15.2124C9.7827 15.9417 10.7719 16.3515 11.8033 16.3515C12.8346 16.3515 13.8238 15.9417 14.5531 15.2124C15.2824 14.4831 15.6922 13.4939 15.6922 12.4626C15.6922 11.4312 15.2824 10.442 14.5531 9.71271C13.8238 8.98341 12.8346 8.57368 11.8033 8.57368Z" fill="#F3CDAF"/>
</svg>
