<svg width="46" height="40" viewBox="0 0 46 40" fill="none" xmlns="http://www.w3.org/2000/svg">
<path d="M3.09612 17.4348C17.2351 11.2147 35.5321 3.63108 38.0578 2.58145C44.6829 -0.165796 46.7158 0.360705 45.7021 6.44468C44.9743 10.8176 42.8739 25.2952 41.1999 34.3065C40.2065 39.6502 37.9779 40.2836 34.4735 37.9717C32.7882 36.8591 24.2821 31.2341 22.436 29.9133C20.7507 28.7096 18.4265 27.2617 21.3414 24.4098C22.3786 23.394 29.1781 16.9016 34.4757 11.8481C35.1699 11.1843 34.298 10.0942 33.497 10.6263C26.3566 15.3615 16.4566 21.9337 15.1966 22.7898C13.2931 24.0825 11.465 24.6753 8.1834 23.7326C5.70387 23.0205 3.28174 22.1711 2.33899 21.8471C-1.29138 20.6006 -0.42963 18.9862 3.09612 17.4348Z" fill="#F3CDAF"/>
</svg>
