<svg width="52" height="53" viewBox="0 0 52 53" fill="none" xmlns="http://www.w3.org/2000/svg">
<path fill-rule="evenodd" clip-rule="evenodd" d="M36.9722 50.3081C45.8193 46.167 51.9479 37.1846 51.9479 26.7708C51.9479 12.4258 40.3189 0.796875 25.9739 0.796875C11.6289 0.796875 0 12.4258 0 26.7708C0 37.9282 7.03495 47.4424 16.9111 51.1199V44.6231C16.9111 44.0708 17.3588 43.6231 17.9111 43.6231H19.2227V34.5821C19.2227 34.0298 19.6704 33.5821 20.2227 33.5821H22.0586V24.4258C22.0586 23.8735 22.5063 23.4258 23.0586 23.4258H23.9922V16.9063C23.9922 16.354 24.4399 15.9063 24.9922 15.9063H25.1742L26.3226 6.44782C26.3834 5.94718 26.8075 5.57014 27.3118 5.56837C27.8161 5.5666 28.2428 5.94065 28.3071 6.44086L29.524 15.9063H29.5644C30.1166 15.9063 30.5644 16.354 30.5644 16.9063V27.7273H31.8932C32.4455 27.7273 32.8932 28.175 32.8932 28.7273V37.2657H33.4436C33.9959 37.2657 34.4436 37.7134 34.4436 38.2657V46.875H35.9722C36.5245 46.875 36.9722 47.3227 36.9722 47.875V50.3081ZM34.9722 51.1438V48.875H32.4932V51.9198C33.3369 51.7017 34.164 51.4423 34.9722 51.1438ZM30.4932 52.353V47.875C30.4932 47.3227 30.9409 46.875 31.4932 46.875H32.4436V39.2657H29.748V52.4726C29.9976 52.4362 30.246 52.3964 30.4932 52.353ZM26.796 52.732V28.7273C26.796 28.6996 26.7971 28.6721 26.7993 28.645H26.7949V25.4258H24.0586V33.5821H24.7743C25.3266 33.5821 25.7743 34.0298 25.7743 34.5821V52.744C25.8408 52.7445 25.9073 52.7448 25.9739 52.7448C26.249 52.7448 26.523 52.7405 26.796 52.732ZM23.7743 52.6529V35.5821H21.2227V43.6231H22.1013C22.6536 43.6231 23.1013 44.0708 23.1013 44.6231V52.5877C23.3248 52.6123 23.5491 52.6341 23.7743 52.6529ZM21.1013 52.2885V45.6231H18.9111V51.773C19.629 51.9754 20.3596 52.1477 21.1013 52.2885ZM30.8932 29.7273V37.2657H28.796V29.7273H30.8932ZM28.5644 17.9031V23.7871C28.3809 23.5664 28.1043 23.4258 27.7949 23.4258H25.9922V17.9063H26.0601C26.5658 17.9063 26.9919 17.5288 27.0528 17.0268L27.3436 14.6315L27.6525 17.0338C27.7132 17.506 28.0969 17.866 28.5644 17.9031ZM37.8592 16.9528L38.3701 17.9773L38.868 16.9528C39.0581 16.5671 39.3659 16.2544 39.7457 16.0613L40.7676 15.5424L39.7457 15.0235C39.3659 14.8304 39.0581 14.5177 38.868 14.132L38.3701 13.1074L37.8592 14.132C37.6691 14.5177 37.3612 14.8304 36.9814 15.0235L35.9727 15.5424L36.9814 16.0613C37.3612 16.2544 37.6691 16.5671 37.8592 16.9528ZM11.991 32.2428L12.5412 33.3605L13.0915 32.2428C13.2957 31.825 13.6262 31.4845 14.0347 31.2715L15.1352 30.7127L14.0347 30.1538C13.6271 29.9458 13.2963 29.6098 13.0915 29.1958L12.5412 28.0781L11.991 29.1958C11.7901 29.6128 11.4583 29.9497 11.0477 30.1538L9.9473 30.7127L11.0477 31.2715C11.4591 31.4806 11.7909 31.8222 11.991 32.2428Z" fill="#F3CDAF"/>
</svg>
